<svg width="48" height="48" viewBox="0 0 24 24" fill="none" xmlns="http://www.w3.org/2000/svg">
<g clip-path="url(#clip0_1_2295)">
<path d="M8.2001 24C10.4081 24 12.2002 22.208 12.2002 20V15.9999H8.2001C5.99209 15.9999 4.20004 17.792 4.20004 20C4.20004 22.208 5.99209 24 8.2001 24Z" fill="#0ACF83"/>
<path d="M4.20004 12C4.20004 9.79197 5.99209 7.99994 8.2001 7.99994H12.2002V15.9999H8.2001C5.99209 16 4.20004 14.208 4.20004 12Z" fill="#A259FF"/>
<path d="M4.20004 4.00003C4.20004 1.79203 5.99209 0 8.2001 0H12.2002V7.99996H8.2001C5.99209 7.99996 4.20004 6.20803 4.20004 4.00003Z" fill="#F24E1E"/>
<path d="M12.1999 0H16.2C18.408 0 20.2 1.79203 20.2 4.00003C20.2 6.20803 18.408 7.99996 16.2 7.99996H12.1999V0Z" fill="#FF7262"/>
<path d="M20.2 12C20.2 14.208 18.408 16 16.2 16C13.992 16 12.1999 14.208 12.1999 12C12.1999 9.79197 13.992 7.99994 16.2 7.99994C18.408 7.99994 20.2 9.79197 20.2 12Z" fill="#1ABCFE"/>
</g>
<defs>
<clipPath id="clip0_1_2295">
<rect width="48" height="48" rx="6" fill="white"/>
</clipPath>
</defs>
</svg>
