<svg width="233" height="46" viewBox="0 0 233 46" fill="none" xmlns="http://www.w3.org/2000/svg">
<path d="M20.7978 12.85C20.1678 12.535 16.6578 12.13 15.8478 12.13C9.1878 13.39 0.997803 21.49 0.997803 28.465C0.997803 31.66 2.5728 34.18 5.0028 34.405C8.4228 31.705 13.3728 27.34 14.8578 24.73H15.0378L13.5528 34H20.4378L20.4828 33.775L17.5578 33.28L20.7978 12.85ZM14.0478 24.595C12.7878 26.98 8.0178 31.255 7.4778 31.255C6.0828 31.12 5.4978 29.905 5.4978 28.375C5.4978 22.12 9.4128 13.84 14.6328 13.84C15.6678 13.84 16.6128 14.155 17.4678 14.83L14.0478 24.595Z" fill="white"/>
<path d="M52.2918 33.28H52.2018C53.8668 24.1 54.8118 19.6 54.8118 17.71C54.8118 13.975 53.3718 12.535 49.3218 12.22C48.5118 12.445 44.5068 14.83 41.7168 20.815C41.9418 19.375 42.0768 18.385 42.0768 17.71C42.0768 13.975 40.6368 12.535 36.5868 12.22C35.6868 12.49 30.8718 15.37 28.1268 22.885H28.0368L30.2868 12.895L29.8368 12.805L23.8068 12.85L23.7618 13.12L25.9218 13.615L22.6368 34H26.7318L28.5318 23.02C31.2318 16.09 33.9768 15.505 34.7418 15.505C36.6318 15.505 37.6218 16.585 37.7118 18.43C37.7568 19.33 37.5318 20.365 35.3718 34H39.3318L39.4668 33.325L39.6018 33.28H39.4668L41.4018 22.75C44.0568 16.045 46.7118 15.505 47.4768 15.505C49.3668 15.505 50.3568 16.585 50.4468 18.43C50.4918 19.33 50.2668 20.365 48.1068 34H55.1718V33.775L52.2918 33.28Z" fill="white"/>
<path d="M75.9052 12.85C75.2752 12.535 71.7652 12.13 70.9552 12.13C64.2952 13.39 56.1052 21.49 56.1052 28.465C56.1052 31.66 57.6802 34.18 60.1102 34.405C63.5302 31.705 68.4802 27.34 69.9652 24.73H70.1452L68.6602 34H75.5452L75.5902 33.775L72.6652 33.28L75.9052 12.85ZM69.1552 24.595C67.8952 26.98 63.1252 31.255 62.5852 31.255C61.1902 31.12 60.6052 29.905 60.6052 28.375C60.6052 22.12 64.5202 13.84 69.7402 13.84C70.7752 13.84 71.7202 14.155 72.5752 14.83L69.1552 24.595Z" fill="white"/>
<path d="M94.7093 33.28H94.6642C96.3292 24.1 97.2742 19.6 97.2742 17.71C97.2742 13.975 95.8342 12.625 91.7842 12.31C90.8842 12.58 85.9342 15.37 83.1892 22.885H83.0993L85.3493 12.895L84.8992 12.805L78.9142 12.85L78.8692 13.12L80.9842 13.66L77.2492 34H81.3442L83.5942 23.065C86.2942 16.09 89.1742 15.595 89.9392 15.595C91.8292 15.595 92.8192 16.585 92.9092 18.43C92.9542 19.33 92.7293 20.365 90.5693 34H97.5892V33.775L94.7093 33.28Z" fill="white"/>
<path d="M121.732 0.25H114.757L114.712 0.520002L117.772 1.105L115.297 12.355C114.352 12.22 113.407 12.13 113.002 12.13C106.387 13.21 98.8275 20.545 98.8275 26.575C98.8275 30.76 100.312 34.315 103.282 34.315C106.702 31.615 110.482 27.34 111.967 24.73H112.147L110.572 34H117.142L117.187 33.775L114.262 33.28L121.732 0.25ZM111.157 24.595C109.897 26.98 106.567 31.39 105.487 31.39C103.552 31.39 103.327 28.42 103.327 26.485C103.327 20.32 105.577 13.795 110.887 13.795C112.012 13.795 113.317 14.155 114.397 14.965L111.157 24.595Z" fill="white"/>
<path d="M138.835 12.85C138.205 12.535 134.695 12.13 133.885 12.13C127.225 13.39 119.035 21.49 119.035 28.465C119.035 31.66 120.61 34.18 123.04 34.405C126.46 31.705 131.41 27.34 132.895 24.73H133.075L131.59 34H138.475L138.52 33.775L135.595 33.28L138.835 12.85ZM132.085 24.595C130.825 26.98 126.055 31.255 125.515 31.255C124.12 31.12 123.535 29.905 123.535 28.375C123.535 22.12 127.45 13.84 132.67 13.84C133.705 13.84 134.65 14.155 135.505 14.83L132.085 24.595Z" fill="white"/>
<path d="M162.418 12.805V13.075C164.488 13.075 166.333 15.685 165.568 17.395L158.593 31.3L158.548 31.435L158.683 30.67L156.343 12.85H149.863L149.818 13.12L152.113 13.525L154.948 33.19L157.963 32.695L153.328 40.84C152.293 42.64 151.303 42.82 150.403 42.82C149.728 42.82 148.333 42.1 147.118 41.065L144.418 44.395C145.453 44.98 146.893 45.655 147.568 45.79C148.963 45.43 152.968 43.675 154.183 40.885L168.718 12.85L162.418 12.805Z" fill="white"/>
<path d="M186.428 12.85C185.798 12.535 182.288 12.13 181.478 12.13C174.818 13.39 166.628 21.49 166.628 28.465C166.628 31.66 168.203 34.18 170.633 34.405C174.053 31.705 179.003 27.34 180.488 24.73H180.668L179.183 34H186.068L186.113 33.775L183.188 33.28L186.428 12.85ZM179.678 24.595C178.418 26.98 173.648 31.255 173.108 31.255C171.713 31.12 171.128 29.905 171.128 28.375C171.128 22.12 175.043 13.84 180.263 13.84C181.298 13.84 182.243 14.155 183.098 14.83L179.678 24.595Z" fill="white"/>
<path d="M205.232 33.28H205.187C206.852 24.1 207.797 19.6 207.797 17.71C207.797 13.975 206.357 12.625 202.307 12.31C201.407 12.58 196.457 15.37 193.712 22.885H193.622L195.872 12.895L195.422 12.805L189.437 12.85L189.392 13.12L191.507 13.66L187.772 34H191.867L194.117 23.065C196.817 16.09 199.697 15.595 200.462 15.595C202.352 15.595 203.342 16.585 203.432 18.43C203.477 19.33 203.252 20.365 201.092 34H208.112V33.775L205.232 33.28Z" fill="white"/>
<path d="M230.365 12.175C230.365 12.895 229.51 13.57 228.43 13.615C227.35 13.66 226.675 13.345 225.37 12.985C224.38 12.535 223.165 12.31 221.68 12.31C216.685 13.57 211.825 17.53 211.825 22.93C211.825 25.27 212.5 26.89 214.21 27.745C212.995 28.735 211.555 29.5 210.475 30.58C210.07 31.975 211.51 33.46 212.545 33.55C213.085 33.595 213.58 33.64 214.03 33.73C209.62 36.565 208.045 37.825 206.65 39.58C206.65 42.325 208.09 45.25 214.255 45.79C214.84 45.88 215.425 45.88 216.055 45.88C217.63 45.475 225.235 44.8 225.775 38.545C226.09 34.9 223.165 32.2 218.98 31.795C218.755 31.795 213.805 31.435 213.4 31.435C212.905 31.39 212.41 31.21 212.455 30.58C212.77 29.725 213.805 28.735 214.705 27.97C215.695 28.33 216.865 28.51 218.395 28.51C223.345 27.52 228.565 23.335 228.565 18.25C228.565 16.63 228.115 15.28 227.17 14.29C227.575 14.11 228.16 14.155 228.7 14.245C229.825 14.245 230.95 15.01 231.445 14.74C231.94 14.425 232.39 13.435 232.615 12.85L230.365 12.175ZM218.62 27.745C216.73 27.745 215.92 26.575 215.92 23.515C215.92 18.97 217.135 13.075 221.23 13.075C223.57 13.075 224.47 14.425 224.47 17.71C224.47 22.255 222.625 27.745 218.62 27.745ZM222.13 40.075C221.725 44.665 219.295 45.205 214.93 44.8C212.41 44.575 210.61 42.775 210.88 39.355C211.105 36.97 212.455 35.305 214.66 33.865C219.7 34.855 222.355 37.51 222.13 40.075Z" fill="white"/>
</svg>
