<svg width="24" height="24" viewBox="0 0 48 48" fill="none" xmlns="http://www.w3.org/2000/svg">
<path d="M0 24C0 10.7452 10.7452 0 24 0C37.2548 0 48 10.7452 48 24C48 37.2548 37.2548 48 24 48C10.7452 48 0 37.2548 0 24Z" fill="#4C6C91"/>
<path d="M25.2547 31.8761C25.2547 31.8761 25.7167 31.8257 25.9534 31.5762C26.17 31.3476 26.1625 30.9162 26.1625 30.9162C26.1625 30.9162 26.1337 28.9017 27.0865 28.6043C28.0256 28.3118 29.2313 30.5524 30.511 31.4139C31.4776 32.0653 32.2113 31.9228 32.2113 31.9228L35.6308 31.8761C35.6308 31.8761 37.4188 31.7679 36.5711 30.3877C36.501 30.2746 36.0766 29.3663 34.0294 27.5006C31.8845 25.5477 32.1725 25.8635 34.7543 22.4849C36.327 20.4274 36.9555 19.1713 36.7589 18.6342C36.5724 18.1205 35.4154 18.2569 35.4154 18.2569L31.5665 18.2803C31.5665 18.2803 31.281 18.2422 31.0694 18.3663C30.8628 18.488 30.7288 18.7719 30.7288 18.7719C30.7288 18.7719 30.1203 20.3635 29.3077 21.7179C27.5936 24.5742 26.9087 24.7254 26.6282 24.5484C25.9759 24.1342 26.1387 22.8868 26.1387 22.0006C26.1387 19.2315 26.5669 18.0775 25.306 17.7788C24.8878 17.6793 24.5798 17.6141 23.5093 17.6031C22.1357 17.5895 20.9738 17.608 20.3152 17.9238C19.8769 18.134 19.5389 18.6035 19.7455 18.6305C19.9996 18.6637 20.5756 18.7829 20.8811 19.191C21.2755 19.7183 21.2617 20.9006 21.2617 20.9006C21.2617 20.9006 21.4884 24.1601 20.7321 24.5644C20.2137 24.8422 19.5025 24.2756 17.9737 21.6835C17.1912 20.3561 16.6002 18.8886 16.6002 18.8886C16.6002 18.8886 16.4862 18.6146 16.2822 18.4671C16.0355 18.2889 15.6912 18.2336 15.6912 18.2336L12.0338 18.2569C12.0338 18.2569 11.4841 18.2717 11.2825 18.5064C11.1035 18.7141 11.2688 19.1455 11.2688 19.1455C11.2688 19.1455 14.1323 25.7222 17.3752 29.0369C20.349 32.0752 23.7246 31.8761 23.7246 31.8761H25.2547Z" fill="white"/>
</svg>
